<svg width="24" height="45" viewBox="0 0 24 45" fill="none" xmlns="http://www.w3.org/2000/svg">
<g clip-path="url(#clip0_7_431)">
<g clip-path="url(#clip1_7_431)">
<path fill-rule="evenodd" clip-rule="evenodd" d="M23.4993 44.3017C23.341 44.4595 23.1529 44.5847 22.9458 44.6701C22.7387 44.7556 22.5167 44.7996 22.2925 44.7996C22.0683 44.7996 21.8463 44.7556 21.6392 44.6701C21.4321 44.5847 21.244 44.4595 21.0857 44.3017L0.631107 23.9645C0.472368 23.8071 0.346428 23.6201 0.260496 23.4142C0.174566 23.2083 0.130333 22.9875 0.130333 22.7646C0.130333 22.5417 0.174566 22.321 0.260496 22.1151C0.346428 21.9092 0.472368 21.7221 0.631107 21.5647L21.0857 1.22756C21.4057 0.909324 21.8398 0.730545 22.2925 0.730545C22.7451 0.730545 23.1792 0.909325 23.4993 1.22756C23.8194 1.54579 23.9992 1.9774 23.9992 2.42745C23.9992 2.87749 23.8194 3.30911 23.4993 3.62734L4.24815 22.7646L23.4993 41.9019C23.658 42.0593 23.784 42.2463 23.8699 42.4522C23.9558 42.6581 24.0001 42.8788 24.0001 43.1018C24.0001 43.3247 23.9558 43.5454 23.8699 43.7513C23.784 43.9572 23.658 44.1442 23.4993 44.3017Z" fill="white"/>
</g>
</g>
<defs>
<clipPath id="clip0_7_431">
<rect width="24" height="44.4706" fill="white" transform="translate(0 0.529297)"/>
</clipPath>
<clipPath id="clip1_7_431">
<rect width="24" height="44.4706" fill="white" transform="translate(24 45) rotate(-180)"/>
</clipPath>
</defs>
</svg>
