<svg width="40" height="40" viewBox="0 0 40 40" fill="none" xmlns="http://www.w3.org/2000/svg">
  <rect x="0.5" y="0.5" width="39" height="39" rx="19.5" fill="white" />
  <rect x="0.5" y="0.5" width="39" height="39" rx="19.5" stroke="#E8E8E8" />
  <path
    d="M20.0009 15.9532L18.6365 14.5566C18.288 14.2018 17.873 13.9204 17.4152 13.7283C16.9573 13.5362 16.4658 13.4372 15.9692 13.4372C15.4727 13.4372 14.9811 13.5362 14.5233 13.7283C14.0654 13.9203 13.6505 14.2017 13.3026 14.5559C12.5886 15.2809 12.1885 16.2575 12.1885 17.275C12.1885 18.2926 12.5887 19.2693 13.3028 19.9943L19.7781 26.5508L20.0005 26.776L20.2228 26.5508L26.6978 19.9946C27.4122 19.2693 27.8125 18.2926 27.8125 17.275C27.8125 16.2575 27.4123 15.2809 26.6983 14.5559C26.3506 14.2015 25.9357 13.92 25.4778 13.7279C25.02 13.5359 24.5286 13.4372 24.0322 13.4375C23.5746 13.7493 23.122 13.8409 22.701 14.0192C22.2801 14.1974 21.8994 14.4587 21.5817 14.7875L20.0009 15.9532Z"
    fill="white"
    stroke="#252B42"
    stroke-width="1.5"
  />
</svg>
