<svg width="459" height="54" viewBox="0 0 459 54" fill="none" xmlns="http://www.w3.org/2000/svg">
<path d="M3.01 11H1.358V1.214H3.934L6.888 7.36L9.842 1.214H12.404V11H10.752V3.356L7.336 10.146H6.412L3.01 3.356V11ZM22.0316 7.962H16.1936C16.2309 8.50333 16.4782 8.942 16.9356 9.278C17.3929 9.60467 17.9156 9.768 18.5036 9.768C19.4369 9.768 20.1462 9.474 20.6316 8.886L21.5276 9.866C20.7249 10.6967 19.6796 11.112 18.3916 11.112C17.3462 11.112 16.4549 10.7667 15.7176 10.076C14.9896 9.376 14.6256 8.44267 14.6256 7.276C14.6256 6.1 14.9989 5.16667 15.7456 4.476C16.4922 3.78533 17.3696 3.44 18.3776 3.44C19.3949 3.44 20.2582 3.748 20.9676 4.364C21.6769 4.97067 22.0316 5.81067 22.0316 6.884V7.962ZM16.1936 6.73H20.4636C20.4636 6.10467 20.2676 5.624 19.8756 5.288C19.4836 4.952 18.9982 4.784 18.4196 4.784C17.8502 4.784 17.3369 4.96133 16.8796 5.316C16.4222 5.66133 16.1936 6.13267 16.1936 6.73ZM25.8332 4.812V8.592C25.8332 8.94667 25.9265 9.23133 26.1132 9.446C26.2999 9.65133 26.5612 9.754 26.8972 9.754C27.2332 9.754 27.5552 9.59067 27.8632 9.264L28.5072 10.37C27.9565 10.8647 27.3452 11.112 26.6732 11.112C26.0105 11.112 25.4412 10.8833 24.9652 10.426C24.4985 9.95933 24.2652 9.334 24.2652 8.55V4.812H23.3272V3.552H24.2652V1.214H25.8332V3.552H27.7932V4.812H25.8332ZM35.5625 6.968V11H33.9945V3.552H35.5625V4.91C35.7865 4.45267 36.1225 4.09333 36.5705 3.832C37.0279 3.57067 37.5179 3.44 38.0405 3.44C39.2165 3.44 40.0145 3.92533 40.4345 4.896C41.1719 3.92533 42.0912 3.44 43.1925 3.44C44.0325 3.44 44.7092 3.69667 45.2225 4.21C45.7452 4.72333 46.0065 5.46533 46.0065 6.436V11H44.4385V6.912C44.4385 5.54 43.8692 4.854 42.7305 4.854C42.1985 4.854 41.7319 5.02667 41.3305 5.372C40.9385 5.708 40.7332 6.20267 40.7145 6.856V11H39.1465V6.912C39.1465 6.20267 39.0205 5.68467 38.7685 5.358C38.5165 5.022 38.1199 4.854 37.5785 4.854C37.0372 4.854 36.5659 5.036 36.1645 5.4C35.7632 5.75467 35.5625 6.27733 35.5625 6.968ZM49.954 11H48.386V3.552H49.954V11ZM48.484 2.068C48.288 1.872 48.19 1.63867 48.19 1.368C48.19 1.09733 48.288 0.864 48.484 0.668C48.68 0.471999 48.9133 0.373999 49.184 0.373999C49.4546 0.373999 49.688 0.471999 49.884 0.668C50.08 0.864 50.178 1.09733 50.178 1.368C50.178 1.63867 50.08 1.872 49.884 2.068C49.688 2.264 49.4546 2.362 49.184 2.362C48.9133 2.362 48.68 2.264 48.484 2.068ZM53.9958 6.968V11H52.4278V3.552H53.9958V4.91C54.2478 4.45267 54.5931 4.09333 55.0318 3.832C55.4798 3.57067 55.9604 3.44 56.4738 3.44C57.3138 3.44 57.9904 3.69667 58.5038 4.21C59.0264 4.72333 59.2878 5.46533 59.2878 6.436V11H57.7198V6.912C57.7198 5.54 57.1504 4.854 56.0118 4.854C55.4704 4.854 54.9991 5.036 54.5978 5.4C54.1964 5.75467 53.9958 6.27733 53.9958 6.968ZM63.2465 11H61.6785V3.552H63.2465V11ZM61.7765 2.068C61.5805 1.872 61.4825 1.63867 61.4825 1.368C61.4825 1.09733 61.5805 0.864 61.7765 0.668C61.9725 0.471999 62.2059 0.373999 62.4765 0.373999C62.7472 0.373999 62.9805 0.471999 63.1765 0.668C63.3725 0.864 63.4705 1.09733 63.4705 1.368C63.4705 1.63867 63.3725 1.872 63.1765 2.068C62.9805 2.264 62.7472 2.362 62.4765 2.362C62.2059 2.362 61.9725 2.264 61.7765 2.068ZM67.2883 6.968V11H65.7203V3.552H67.2883V4.91C67.5123 4.45267 67.8483 4.09333 68.2963 3.832C68.7537 3.57067 69.2437 3.44 69.7663 3.44C70.9423 3.44 71.7403 3.92533 72.1603 4.896C72.8977 3.92533 73.817 3.44 74.9183 3.44C75.7583 3.44 76.435 3.69667 76.9483 4.21C77.471 4.72333 77.7323 5.46533 77.7323 6.436V11H76.1643V6.912C76.1643 5.54 75.595 4.854 74.4563 4.854C73.9243 4.854 73.4577 5.02667 73.0563 5.372C72.6643 5.708 72.459 6.20267 72.4403 6.856V11H70.8723V6.912C70.8723 6.20267 70.7463 5.68467 70.4943 5.358C70.2423 5.022 69.8457 4.854 69.3043 4.854C68.763 4.854 68.2917 5.036 67.8903 5.4C67.489 5.75467 67.2883 6.27733 67.2883 6.968ZM86.0295 11H84.3775V1.214H86.9535L89.9075 7.36L92.8615 1.214H95.4235V11H93.7715V3.356L90.3555 10.146H89.4315L86.0295 3.356V11ZM99.8571 9.04C100.305 9.488 100.87 9.712 101.551 9.712C102.232 9.712 102.792 9.488 103.231 9.04C103.679 8.58267 103.903 7.99467 103.903 7.276C103.903 6.55733 103.679 5.974 103.231 5.526C102.792 5.06867 102.232 4.84 101.551 4.84C100.87 4.84 100.305 5.06867 99.8571 5.526C99.4184 5.974 99.1991 6.55733 99.1991 7.276C99.1991 7.99467 99.4184 8.58267 99.8571 9.04ZM104.351 10.006C103.604 10.7433 102.671 11.112 101.551 11.112C100.431 11.112 99.4978 10.7433 98.7511 10.006C98.0044 9.25933 97.6311 8.34933 97.6311 7.276C97.6311 6.20267 98.0044 5.29733 98.7511 4.56C99.4978 3.81333 100.431 3.44 101.551 3.44C102.671 3.44 103.604 3.81333 104.351 4.56C105.098 5.29733 105.471 6.20267 105.471 7.276C105.471 8.34933 105.098 9.25933 104.351 10.006ZM109.022 11H107.454V0.611999H109.022V11ZM113.064 11H111.496V0.611999H113.064V11ZM117.106 11H115.538V3.552H117.106V11ZM115.636 2.068C115.44 1.872 115.342 1.63867 115.342 1.368C115.342 1.09733 115.44 0.864 115.636 0.668C115.832 0.471999 116.065 0.373999 116.336 0.373999C116.606 0.373999 116.84 0.471999 117.036 0.668C117.232 0.864 117.33 1.09733 117.33 1.368C117.33 1.63867 117.232 1.872 117.036 2.068C116.84 2.264 116.606 2.362 116.336 2.362C116.065 2.362 115.832 2.264 115.636 2.068ZM126.509 7.962H120.671C120.709 8.50333 120.956 8.942 121.413 9.278C121.871 9.60467 122.393 9.768 122.981 9.768C123.915 9.768 124.624 9.474 125.109 8.886L126.005 9.866C125.203 10.6967 124.157 11.112 122.869 11.112C121.824 11.112 120.933 10.7667 120.195 10.076C119.467 9.376 119.103 8.44267 119.103 7.276C119.103 6.1 119.477 5.16667 120.223 4.476C120.97 3.78533 121.847 3.44 122.855 3.44C123.873 3.44 124.736 3.748 125.445 4.364C126.155 4.97067 126.509 5.81067 126.509 6.884V7.962ZM120.671 6.73H124.941C124.941 6.10467 124.745 5.624 124.353 5.288C123.961 4.952 123.476 4.784 122.897 4.784C122.328 4.784 121.815 4.96133 121.357 5.316C120.9 5.66133 120.671 6.13267 120.671 6.73ZM134.043 6.968V11H132.475V3.552H134.043V4.91C134.295 4.45267 134.641 4.09333 135.079 3.832C135.527 3.57067 136.008 3.44 136.521 3.44C137.361 3.44 138.038 3.69667 138.551 4.21C139.074 4.72333 139.335 5.46533 139.335 6.436V11H137.767V6.912C137.767 5.54 137.198 4.854 136.059 4.854C135.518 4.854 135.047 5.036 134.645 5.4C134.244 5.75467 134.043 6.27733 134.043 6.968ZM143.462 9.04C143.91 9.488 144.475 9.712 145.156 9.712C145.838 9.712 146.398 9.488 146.836 9.04C147.284 8.58267 147.508 7.99467 147.508 7.276C147.508 6.55733 147.284 5.974 146.836 5.526C146.398 5.06867 145.838 4.84 145.156 4.84C144.475 4.84 143.91 5.06867 143.462 5.526C143.024 5.974 142.804 6.55733 142.804 7.276C142.804 7.99467 143.024 8.58267 143.462 9.04ZM147.956 10.006C147.21 10.7433 146.276 11.112 145.156 11.112C144.036 11.112 143.103 10.7433 142.356 10.006C141.61 9.25933 141.236 8.34933 141.236 7.276C141.236 6.20267 141.61 5.29733 142.356 4.56C143.103 3.81333 144.036 3.44 145.156 3.44C146.276 3.44 147.21 3.81333 147.956 4.56C148.703 5.29733 149.076 6.20267 149.076 7.276C149.076 8.34933 148.703 9.25933 147.956 10.006ZM152.627 6.968V11H151.059V3.552H152.627V4.91C152.879 4.45267 153.224 4.09333 153.663 3.832C154.111 3.57067 154.592 3.44 155.105 3.44C155.945 3.44 156.622 3.69667 157.135 4.21C157.658 4.72333 157.919 5.46533 157.919 6.436V11H156.351V6.912C156.351 5.54 155.782 4.854 154.643 4.854C154.102 4.854 153.63 5.036 153.229 5.4C152.828 5.75467 152.627 6.27733 152.627 6.968ZM167.39 11.112C166.447 11.112 165.626 10.7573 164.926 10.048C164.226 9.33867 163.876 8.40533 163.876 7.248C163.876 6.09067 164.235 5.16667 164.954 4.476C165.672 3.78533 166.526 3.44 167.516 3.44C168.514 3.44 169.317 3.86 169.924 4.7V0.611999H171.492V11H169.924V9.88C169.345 10.7013 168.5 11.112 167.39 11.112ZM165.444 7.318C165.444 8.02733 165.672 8.606 166.13 9.054C166.587 9.502 167.124 9.726 167.74 9.726C168.356 9.726 168.878 9.502 169.308 9.054C169.737 8.59667 169.952 8.01333 169.952 7.304C169.952 6.59467 169.737 6.002 169.308 5.526C168.878 5.05 168.351 4.812 167.726 4.812C167.1 4.812 166.564 5.05 166.116 5.526C165.668 6.002 165.444 6.59933 165.444 7.318ZM180.888 7.962H175.05C175.087 8.50333 175.334 8.942 175.792 9.278C176.249 9.60467 176.772 9.768 177.36 9.768C178.293 9.768 179.002 9.474 179.488 8.886L180.384 9.866C179.581 10.6967 178.536 11.112 177.248 11.112C176.202 11.112 175.311 10.7667 174.574 10.076C173.846 9.376 173.482 8.44267 173.482 7.276C173.482 6.1 173.855 5.16667 174.602 4.476C175.348 3.78533 176.226 3.44 177.234 3.44C178.251 3.44 179.114 3.748 179.824 4.364C180.533 4.97067 180.888 5.81067 180.888 6.884V7.962ZM175.05 6.73H179.32C179.32 6.10467 179.124 5.624 178.732 5.288C178.34 4.952 177.854 4.784 177.276 4.784C176.706 4.784 176.193 4.96133 175.736 5.316C175.278 5.66133 175.05 6.13267 175.05 6.73ZM188.118 8.774C188.118 9.48333 187.861 10.0527 187.348 10.482C186.835 10.902 186.177 11.112 185.374 11.112C184.833 11.112 184.268 11.014 183.68 10.818C183.101 10.622 182.588 10.3467 182.14 9.992L182.896 8.774C183.764 9.42733 184.604 9.754 185.416 9.754C185.771 9.754 186.051 9.67467 186.256 9.516C186.461 9.348 186.564 9.138 186.564 8.886C186.564 8.51267 186.069 8.17667 185.08 7.878C185.005 7.85 184.949 7.83133 184.912 7.822C183.363 7.402 182.588 6.702 182.588 5.722C182.588 5.03133 182.854 4.48067 183.386 4.07C183.927 3.65 184.627 3.44 185.486 3.44C186.345 3.44 187.157 3.692 187.922 4.196L187.334 5.358C186.727 4.95667 186.069 4.756 185.36 4.756C184.987 4.756 184.683 4.826 184.45 4.966C184.217 5.09667 184.1 5.29733 184.1 5.568C184.1 5.81067 184.221 5.988 184.464 6.1C184.632 6.184 184.865 6.26333 185.164 6.338C185.472 6.41267 185.743 6.48733 185.976 6.562C186.209 6.63667 186.433 6.72067 186.648 6.814C186.872 6.90733 187.11 7.038 187.362 7.206C187.866 7.542 188.118 8.06467 188.118 8.774ZM197.024 7.962H191.186C191.223 8.50333 191.471 8.942 191.928 9.278C192.385 9.60467 192.908 9.768 193.496 9.768C194.429 9.768 195.139 9.474 195.624 8.886L196.52 9.866C195.717 10.6967 194.672 11.112 193.384 11.112C192.339 11.112 191.447 10.7667 190.71 10.076C189.982 9.376 189.618 8.44267 189.618 7.276C189.618 6.1 189.991 5.16667 190.738 4.476C191.485 3.78533 192.362 3.44 193.37 3.44C194.387 3.44 195.251 3.748 195.96 4.364C196.669 4.97067 197.024 5.81067 197.024 6.884V7.962ZM191.186 6.73H195.456C195.456 6.10467 195.26 5.624 194.868 5.288C194.476 4.952 193.991 4.784 193.412 4.784C192.843 4.784 192.329 4.96133 191.872 5.316C191.415 5.66133 191.186 6.13267 191.186 6.73ZM202.854 5.022C202.08 5.022 201.496 5.274 201.104 5.778C200.712 6.282 200.516 6.95867 200.516 7.808V11H198.948V3.552H200.516V5.05C200.768 4.58333 201.109 4.20067 201.538 3.902C201.977 3.60333 202.439 3.44933 202.924 3.44L202.938 5.022C202.91 5.022 202.882 5.022 202.854 5.022ZM206.645 4.812V8.592C206.645 8.94667 206.738 9.23133 206.925 9.446C207.112 9.65133 207.373 9.754 207.709 9.754C208.045 9.754 208.367 9.59067 208.675 9.264L209.319 10.37C208.768 10.8647 208.157 11.112 207.485 11.112C206.822 11.112 206.253 10.8833 205.777 10.426C205.31 9.95933 205.077 9.334 205.077 8.55V4.812H204.139V3.552H205.077V1.214H206.645V3.552H208.605V4.812H206.645ZM216.416 8.774L215.436 11H213.672L217.984 1.214H219.748L224.06 11H222.296L221.316 8.774H216.416ZM220.644 7.248L218.866 3.216L217.088 7.248H220.644ZM226.965 11H225.397V0.611999H226.965V11ZM235.473 11H234.045V10.006C233.429 10.7433 232.603 11.112 231.567 11.112C230.792 11.112 230.148 10.8927 229.635 10.454C229.131 10.0153 228.879 9.432 228.879 8.704C228.879 7.96667 229.149 7.416 229.691 7.052C230.232 6.688 230.965 6.506 231.889 6.506H233.919V6.226C233.919 5.23667 233.368 4.742 232.267 4.742C231.576 4.742 230.857 4.994 230.111 5.498L229.411 4.518C230.316 3.79933 231.343 3.44 232.491 3.44C233.368 3.44 234.082 3.664 234.633 4.112C235.193 4.55067 235.473 5.246 235.473 6.198V11ZM233.905 8.228V7.598H232.141C231.011 7.598 230.447 7.95267 230.447 8.662C230.447 9.026 230.587 9.306 230.867 9.502C231.147 9.68867 231.534 9.782 232.029 9.782C232.533 9.782 232.971 9.642 233.345 9.362C233.718 9.082 233.905 8.704 233.905 8.228ZM239.423 6.968V11H237.855V3.552H239.423V4.91C239.647 4.45267 239.983 4.09333 240.431 3.832C240.889 3.57067 241.379 3.44 241.901 3.44C243.077 3.44 243.875 3.92533 244.295 4.896C245.033 3.92533 245.952 3.44 247.053 3.44C247.893 3.44 248.57 3.69667 249.083 4.21C249.606 4.72333 249.867 5.46533 249.867 6.436V11H248.299V6.912C248.299 5.54 247.73 4.854 246.591 4.854C246.059 4.854 245.593 5.02667 245.191 5.372C244.799 5.708 244.594 6.20267 244.575 6.856V11H243.007V6.912C243.007 6.20267 242.881 5.68467 242.629 5.358C242.377 5.022 241.981 4.854 241.439 4.854C240.898 4.854 240.427 5.036 240.025 5.4C239.624 5.75467 239.423 6.27733 239.423 6.968ZM253.983 9.04C254.431 9.488 254.996 9.712 255.677 9.712C256.358 9.712 256.918 9.488 257.357 9.04C257.805 8.58267 258.029 7.99467 258.029 7.276C258.029 6.55733 257.805 5.974 257.357 5.526C256.918 5.06867 256.358 4.84 255.677 4.84C254.996 4.84 254.431 5.06867 253.983 5.526C253.544 5.974 253.325 6.55733 253.325 7.276C253.325 7.99467 253.544 8.58267 253.983 9.04ZM258.477 10.006C257.73 10.7433 256.797 11.112 255.677 11.112C254.557 11.112 253.624 10.7433 252.877 10.006C252.13 9.25933 251.757 8.34933 251.757 7.276C251.757 6.20267 252.13 5.29733 252.877 4.56C253.624 3.81333 254.557 3.44 255.677 3.44C256.797 3.44 257.73 3.81333 258.477 4.56C259.224 5.29733 259.597 6.20267 259.597 7.276C259.597 8.34933 259.224 9.25933 258.477 10.006ZM272.551 7.962H266.713C266.751 8.50333 266.998 8.942 267.455 9.278C267.913 9.60467 268.435 9.768 269.023 9.768C269.957 9.768 270.666 9.474 271.151 8.886L272.047 9.866C271.245 10.6967 270.199 11.112 268.911 11.112C267.866 11.112 266.975 10.7667 266.237 10.076C265.509 9.376 265.145 8.44267 265.145 7.276C265.145 6.1 265.519 5.16667 266.265 4.476C267.012 3.78533 267.889 3.44 268.897 3.44C269.915 3.44 270.778 3.748 271.487 4.364C272.197 4.97067 272.551 5.81067 272.551 6.884V7.962ZM266.713 6.73H270.983C270.983 6.10467 270.787 5.624 270.395 5.288C270.003 4.952 269.518 4.784 268.939 4.784C268.37 4.784 267.857 4.96133 267.399 5.316C266.942 5.66133 266.713 6.13267 266.713 6.73ZM279.782 8.774C279.782 9.48333 279.525 10.0527 279.012 10.482C278.498 10.902 277.84 11.112 277.038 11.112C276.496 11.112 275.932 11.014 275.344 10.818C274.765 10.622 274.252 10.3467 273.804 9.992L274.56 8.774C275.428 9.42733 276.268 9.754 277.08 9.754C277.434 9.754 277.714 9.67467 277.92 9.516C278.125 9.348 278.228 9.138 278.228 8.886C278.228 8.51267 277.733 8.17667 276.744 7.878C276.669 7.85 276.613 7.83133 276.576 7.822C275.026 7.402 274.252 6.702 274.252 5.722C274.252 5.03133 274.518 4.48067 275.05 4.07C275.591 3.65 276.291 3.44 277.15 3.44C278.008 3.44 278.82 3.692 279.586 4.196L278.998 5.358C278.391 4.95667 277.733 4.756 277.024 4.756C276.65 4.756 276.347 4.826 276.114 4.966C275.88 5.09667 275.764 5.29733 275.764 5.568C275.764 5.81067 275.885 5.988 276.128 6.1C276.296 6.184 276.529 6.26333 276.828 6.338C277.136 6.41267 277.406 6.48733 277.64 6.562C277.873 6.63667 278.097 6.72067 278.312 6.814C278.536 6.90733 278.774 7.038 279.026 7.206C279.53 7.542 279.782 8.06467 279.782 8.774ZM283.69 4.812V8.592C283.69 8.94667 283.783 9.23133 283.97 9.446C284.157 9.65133 284.418 9.754 284.754 9.754C285.09 9.754 285.412 9.59067 285.72 9.264L286.364 10.37C285.813 10.8647 285.202 11.112 284.53 11.112C283.867 11.112 283.298 10.8833 282.822 10.426C282.355 9.95933 282.122 9.334 282.122 8.55V4.812H281.184V3.552H282.122V1.214H283.69V3.552H285.65V4.812H283.69ZM297.157 8.774C297.157 9.48333 296.901 10.0527 296.387 10.482C295.874 10.902 295.216 11.112 294.413 11.112C293.872 11.112 293.307 11.014 292.719 10.818C292.141 10.622 291.627 10.3467 291.179 9.992L291.935 8.774C292.803 9.42733 293.643 9.754 294.455 9.754C294.81 9.754 295.09 9.67467 295.295 9.516C295.501 9.348 295.603 9.138 295.603 8.886C295.603 8.51267 295.109 8.17667 294.119 7.878C294.045 7.85 293.989 7.83133 293.951 7.822C292.402 7.402 291.627 6.702 291.627 5.722C291.627 5.03133 291.893 4.48067 292.425 4.07C292.967 3.65 293.667 3.44 294.525 3.44C295.384 3.44 296.196 3.692 296.961 4.196L296.373 5.358C295.767 4.95667 295.109 4.756 294.399 4.756C294.026 4.756 293.723 4.826 293.489 4.966C293.256 5.09667 293.139 5.29733 293.139 5.568C293.139 5.81067 293.261 5.988 293.503 6.1C293.671 6.184 293.905 6.26333 294.203 6.338C294.511 6.41267 294.782 6.48733 295.015 6.562C295.249 6.63667 295.473 6.72067 295.687 6.814C295.911 6.90733 296.149 7.038 296.401 7.206C296.905 7.542 297.157 8.06467 297.157 8.774ZM300.701 11H299.133V3.552H300.701V11ZM299.231 2.068C299.035 1.872 298.937 1.63867 298.937 1.368C298.937 1.09733 299.035 0.864 299.231 0.668C299.427 0.471999 299.661 0.373999 299.931 0.373999C300.202 0.373999 300.435 0.471999 300.631 0.668C300.827 0.864 300.925 1.09733 300.925 1.368C300.925 1.63867 300.827 1.872 300.631 2.068C300.435 2.264 300.202 2.362 299.931 2.362C299.661 2.362 299.427 2.264 299.231 2.068ZM305.107 4.812V8.592C305.107 8.94667 305.2 9.23133 305.387 9.446C305.574 9.65133 305.835 9.754 306.171 9.754C306.507 9.754 306.829 9.59067 307.137 9.264L307.781 10.37C307.23 10.8647 306.619 11.112 305.947 11.112C305.284 11.112 304.715 10.8833 304.239 10.426C303.772 9.95933 303.539 9.334 303.539 8.55V4.812H302.601V3.552H303.539V1.214H305.107V3.552H307.067V4.812H305.107ZM316.572 11.112C315.536 11.112 314.645 10.762 313.898 10.062C313.152 9.35267 312.778 8.42867 312.778 7.29C312.778 6.15133 313.166 5.22733 313.94 4.518C314.724 3.79933 315.676 3.44 316.796 3.44C317.916 3.44 318.864 3.82733 319.638 4.602L318.714 5.736C318.07 5.176 317.422 4.896 316.768 4.896C316.115 4.896 315.546 5.11533 315.06 5.554C314.584 5.98333 314.346 6.54333 314.346 7.234C314.346 7.91533 314.584 8.494 315.06 8.97C315.536 9.446 316.12 9.684 316.81 9.684C317.51 9.684 318.168 9.36667 318.784 8.732L319.708 9.74C318.803 10.6547 317.758 11.112 316.572 11.112ZM323.103 11H321.535V0.611999H323.103V11ZM327.145 11H325.577V3.552H327.145V11ZM325.675 2.068C325.479 1.872 325.381 1.63867 325.381 1.368C325.381 1.09733 325.479 0.864 325.675 0.668C325.871 0.471999 326.104 0.373999 326.375 0.373999C326.645 0.373999 326.879 0.471999 327.075 0.668C327.271 0.864 327.369 1.09733 327.369 1.368C327.369 1.63867 327.271 1.872 327.075 2.068C326.879 2.264 326.645 2.362 326.375 2.362C326.104 2.362 325.871 2.264 325.675 2.068ZM332.656 11.112C331.723 11.112 330.902 10.7527 330.192 10.034C329.492 9.31533 329.142 8.382 329.142 7.234C329.142 6.086 329.497 5.16667 330.206 4.476C330.916 3.78533 331.77 3.44 332.768 3.44C333.767 3.44 334.574 3.91133 335.19 4.854V3.552H336.758V13.716H335.19V9.88C334.444 10.7013 333.599 11.112 332.656 11.112ZM330.71 7.304C330.71 8.01333 330.939 8.592 331.396 9.04C331.854 9.488 332.39 9.712 333.006 9.712C333.622 9.712 334.145 9.488 334.574 9.04C335.004 8.58267 335.218 7.99933 335.218 7.29C335.218 6.58067 335.004 5.99267 334.574 5.526C334.145 5.05 333.618 4.812 332.992 4.812C332.367 4.812 331.83 5.05 331.382 5.526C330.934 5.99267 330.71 6.58533 330.71 7.304ZM344.433 7.584V3.552H346.001V11H344.433V9.642C344.181 10.0993 343.831 10.4587 343.383 10.72C342.944 10.9813 342.468 11.112 341.955 11.112C341.115 11.112 340.433 10.8553 339.911 10.342C339.397 9.82867 339.141 9.08667 339.141 8.116V3.552H340.709V7.64C340.709 9.012 341.278 9.698 342.417 9.698C342.958 9.698 343.429 9.52067 343.831 9.166C344.232 8.802 344.433 8.27467 344.433 7.584ZM355.405 7.962H349.567C349.605 8.50333 349.852 8.942 350.309 9.278C350.767 9.60467 351.289 9.768 351.877 9.768C352.811 9.768 353.52 9.474 354.005 8.886L354.901 9.866C354.099 10.6967 353.053 11.112 351.765 11.112C350.72 11.112 349.829 10.7667 349.091 10.076C348.363 9.376 347.999 8.44267 347.999 7.276C347.999 6.1 348.373 5.16667 349.119 4.476C349.866 3.78533 350.743 3.44 351.751 3.44C352.769 3.44 353.632 3.748 354.341 4.364C355.051 4.97067 355.405 5.81067 355.405 6.884V7.962ZM349.567 6.73H353.837C353.837 6.10467 353.641 5.624 353.249 5.288C352.857 4.952 352.372 4.784 351.793 4.784C351.224 4.784 350.711 4.96133 350.253 5.316C349.796 5.66133 349.567 6.13267 349.567 6.73ZM358.186 13.968C357.504 13.968 356.888 13.7207 356.338 13.226L357.052 11.952C357.378 12.26 357.714 12.414 358.06 12.414C358.414 12.414 358.699 12.288 358.914 12.036C359.138 11.784 359.25 11.5087 359.25 11.21C359.25 11.0793 358.246 8.52667 356.24 3.552H357.92L360.146 9.04L362.372 3.552H364.052L360.44 12.4C360.225 12.8853 359.917 13.268 359.516 13.548C359.114 13.828 358.671 13.968 358.186 13.968ZM372.567 11.112C371.624 11.112 370.803 10.7573 370.103 10.048C369.403 9.33867 369.053 8.40533 369.053 7.248C369.053 6.09067 369.412 5.16667 370.131 4.476C370.849 3.78533 371.703 3.44 372.693 3.44C373.691 3.44 374.494 3.86 375.101 4.7V0.611999H376.669V11H375.101V9.88C374.522 10.7013 373.677 11.112 372.567 11.112ZM370.621 7.318C370.621 8.02733 370.849 8.606 371.307 9.054C371.764 9.502 372.301 9.726 372.917 9.726C373.533 9.726 374.055 9.502 374.485 9.054C374.914 8.59667 375.129 8.01333 375.129 7.304C375.129 6.59467 374.914 6.002 374.485 5.526C374.055 5.05 373.528 4.812 372.903 4.812C372.277 4.812 371.741 5.05 371.293 5.526C370.845 6.002 370.621 6.59933 370.621 7.318ZM380.871 9.04C381.319 9.488 381.883 9.712 382.565 9.712C383.246 9.712 383.806 9.488 384.245 9.04C384.693 8.58267 384.917 7.99467 384.917 7.276C384.917 6.55733 384.693 5.974 384.245 5.526C383.806 5.06867 383.246 4.84 382.565 4.84C381.883 4.84 381.319 5.06867 380.871 5.526C380.432 5.974 380.213 6.55733 380.213 7.276C380.213 7.99467 380.432 8.58267 380.871 9.04ZM385.365 10.006C384.618 10.7433 383.685 11.112 382.565 11.112C381.445 11.112 380.511 10.7433 379.765 10.006C379.018 9.25933 378.645 8.34933 378.645 7.276C378.645 6.20267 379.018 5.29733 379.765 4.56C380.511 3.81333 381.445 3.44 382.565 3.44C383.685 3.44 384.618 3.81333 385.365 4.56C386.111 5.29733 386.485 6.20267 386.485 7.276C386.485 8.34933 386.111 9.25933 385.365 10.006ZM390.036 11H388.468V0.611999H390.036V11ZM394.245 9.04C394.693 9.488 395.258 9.712 395.939 9.712C396.621 9.712 397.181 9.488 397.619 9.04C398.067 8.58267 398.291 7.99467 398.291 7.276C398.291 6.55733 398.067 5.974 397.619 5.526C397.181 5.06867 396.621 4.84 395.939 4.84C395.258 4.84 394.693 5.06867 394.245 5.526C393.807 5.974 393.587 6.55733 393.587 7.276C393.587 7.99467 393.807 8.58267 394.245 9.04ZM398.739 10.006C397.993 10.7433 397.059 11.112 395.939 11.112C394.819 11.112 393.886 10.7433 393.139 10.006C392.393 9.25933 392.019 8.34933 392.019 7.276C392.019 6.20267 392.393 5.29733 393.139 4.56C393.886 3.81333 394.819 3.44 395.939 3.44C397.059 3.44 397.993 3.81333 398.739 4.56C399.486 5.29733 399.859 6.20267 399.859 7.276C399.859 8.34933 399.486 9.25933 398.739 10.006ZM405.748 5.022C404.974 5.022 404.39 5.274 403.998 5.778C403.606 6.282 403.41 6.95867 403.41 7.808V11H401.842V3.552H403.41V5.05C403.662 4.58333 404.003 4.20067 404.432 3.902C404.871 3.60333 405.333 3.44933 405.818 3.44L405.832 5.022C405.804 5.022 405.776 5.022 405.748 5.022ZM4.172 31.112C3.22933 31.112 2.408 30.7573 1.708 30.048C1.008 29.3387 0.658 28.4053 0.658 27.248C0.658 26.0907 1.01733 25.1667 1.736 24.476C2.45467 23.7853 3.30867 23.44 4.298 23.44C5.29667 23.44 6.09933 23.86 6.706 24.7V20.612H8.274V31H6.706V29.88C6.12733 30.7013 5.28267 31.112 4.172 31.112ZM2.226 27.318C2.226 28.0273 2.45467 28.606 2.912 29.054C3.36933 29.502 3.906 29.726 4.522 29.726C5.138 29.726 5.66067 29.502 6.09 29.054C6.51933 28.5967 6.734 28.0133 6.734 27.304C6.734 26.5947 6.51933 26.002 6.09 25.526C5.66067 25.05 5.13333 24.812 4.508 24.812C3.88267 24.812 3.346 25.05 2.898 25.526C2.45 26.002 2.226 26.5993 2.226 27.318ZM12.4762 29.04C12.9243 29.488 13.4889 29.712 14.1702 29.712C14.8516 29.712 15.4116 29.488 15.8502 29.04C16.2983 28.5827 16.5223 27.9947 16.5223 27.276C16.5223 26.5573 16.2983 25.974 15.8502 25.526C15.4116 25.0687 14.8516 24.84 14.1702 24.84C13.4889 24.84 12.9243 25.0687 12.4762 25.526C12.0376 25.974 11.8182 26.5573 11.8182 27.276C11.8182 27.9947 12.0376 28.5827 12.4762 29.04ZM16.9703 30.006C16.2236 30.7433 15.2902 31.112 14.1702 31.112C13.0502 31.112 12.1169 30.7433 11.3702 30.006C10.6236 29.2593 10.2502 28.3493 10.2502 27.276C10.2502 26.2027 10.6236 25.2973 11.3702 24.56C12.1169 23.8133 13.0502 23.44 14.1702 23.44C15.2902 23.44 16.2236 23.8133 16.9703 24.56C17.7169 25.2973 18.0902 26.2027 18.0902 27.276C18.0902 28.3493 17.7169 29.2593 16.9703 30.006ZM25.6829 26.968V31H24.1149V23.552H25.6829V24.91C25.9069 24.4527 26.2429 24.0933 26.6909 23.832C27.1482 23.5707 27.6382 23.44 28.1609 23.44C29.3369 23.44 30.1349 23.9253 30.5549 24.896C31.2922 23.9253 32.2115 23.44 33.3129 23.44C34.1529 23.44 34.8295 23.6967 35.3429 24.21C35.8655 24.7233 36.1269 25.4653 36.1269 26.436V31H34.5589V26.912C34.5589 25.54 33.9895 24.854 32.8509 24.854C32.3189 24.854 31.8522 25.0267 31.4509 25.372C31.0589 25.708 30.8535 26.2027 30.8349 26.856V31H29.2669V26.912C29.2669 26.2027 29.1409 25.6847 28.8889 25.358C28.6369 25.022 28.2402 24.854 27.6989 24.854C27.1575 24.854 26.6862 25.036 26.2849 25.4C25.8835 25.7547 25.6829 26.2773 25.6829 26.968ZM45.4363 27.962H39.5983C39.6356 28.5033 39.8829 28.942 40.3403 29.278C40.7976 29.6047 41.3203 29.768 41.9083 29.768C42.8416 29.768 43.5509 29.474 44.0363 28.886L44.9323 29.866C44.1296 30.6967 43.0843 31.112 41.7963 31.112C40.7509 31.112 39.8596 30.7667 39.1223 30.076C38.3943 29.376 38.0303 28.4427 38.0303 27.276C38.0303 26.1 38.4036 25.1667 39.1503 24.476C39.8969 23.7853 40.7743 23.44 41.7823 23.44C42.7996 23.44 43.6629 23.748 44.3723 24.364C45.0816 24.9707 45.4363 25.8107 45.4363 26.884V27.962ZM39.5983 26.73H43.8683C43.8683 26.1047 43.6723 25.624 43.2803 25.288C42.8883 24.952 42.4029 24.784 41.8243 24.784C41.2549 24.784 40.7416 24.9613 40.2843 25.316C39.8269 25.6613 39.5983 26.1327 39.5983 26.73ZM49.2379 24.812V28.592C49.2379 28.9467 49.3312 29.2313 49.5179 29.446C49.7045 29.6513 49.9659 29.754 50.3019 29.754C50.6379 29.754 50.9599 29.5907 51.2679 29.264L51.9119 30.37C51.3612 30.8647 50.7499 31.112 50.0779 31.112C49.4152 31.112 48.8459 30.8833 48.3699 30.426C47.9032 29.9593 47.6699 29.334 47.6699 28.55V24.812H46.7319V23.552H47.6699V21.214H49.2379V23.552H51.1979V24.812H49.2379ZM62.7052 28.774C62.7052 29.4833 62.4486 30.0527 61.9352 30.482C61.4219 30.902 60.7639 31.112 59.9612 31.112C59.4199 31.112 58.8552 31.014 58.2672 30.818C57.6886 30.622 57.1752 30.3467 56.7272 29.992L57.4832 28.774C58.3512 29.4273 59.1912 29.754 60.0032 29.754C60.3579 29.754 60.6379 29.6747 60.8432 29.516C61.0486 29.348 61.1512 29.138 61.1512 28.886C61.1512 28.5127 60.6566 28.1767 59.6672 27.878C59.5926 27.85 59.5366 27.8313 59.4992 27.822C57.9499 27.402 57.1752 26.702 57.1752 25.722C57.1752 25.0313 57.4412 24.4807 57.9732 24.07C58.5146 23.65 59.2146 23.44 60.0732 23.44C60.9319 23.44 61.7439 23.692 62.5092 24.196L61.9212 25.358C61.3146 24.9567 60.6566 24.756 59.9472 24.756C59.5739 24.756 59.2706 24.826 59.0372 24.966C58.8039 25.0967 58.6872 25.2973 58.6872 25.568C58.6872 25.8107 58.8086 25.988 59.0512 26.1C59.2192 26.184 59.4526 26.2633 59.7512 26.338C60.0592 26.4127 60.3299 26.4873 60.5632 26.562C60.7966 26.6367 61.0206 26.7207 61.2352 26.814C61.4592 26.9073 61.6972 27.038 61.9492 27.206C62.4532 27.542 62.7052 28.0647 62.7052 28.774ZM71.6113 27.962H65.7733C65.8106 28.5033 66.0579 28.942 66.5153 29.278C66.9726 29.6047 67.4953 29.768 68.0833 29.768C69.0166 29.768 69.7259 29.474 70.2113 28.886L71.1073 29.866C70.3046 30.6967 69.2593 31.112 67.9713 31.112C66.9259 31.112 66.0346 30.7667 65.2973 30.076C64.5693 29.376 64.2053 28.4427 64.2053 27.276C64.2053 26.1 64.5786 25.1667 65.3253 24.476C66.0719 23.7853 66.9493 23.44 67.9573 23.44C68.9746 23.44 69.8379 23.748 70.5473 24.364C71.2566 24.9707 71.6113 25.8107 71.6113 26.884V27.962ZM65.7733 26.73H70.0433C70.0433 26.1047 69.8473 25.624 69.4553 25.288C69.0633 24.952 68.5779 24.784 67.9993 24.784C67.4299 24.784 66.9166 24.9613 66.4593 25.316C66.0019 25.6613 65.7733 26.1327 65.7733 26.73ZM75.1036 26.968V31H73.5356V23.552H75.1036V24.91C75.3556 24.4527 75.7009 24.0933 76.1396 23.832C76.5876 23.5707 77.0682 23.44 77.5816 23.44C78.4216 23.44 79.0982 23.6967 79.6116 24.21C80.1342 24.7233 80.3956 25.4653 80.3956 26.436V31H78.8276V26.912C78.8276 25.54 78.2582 24.854 77.1196 24.854C76.5782 24.854 76.1069 25.036 75.7056 25.4C75.3042 25.7547 75.1036 26.2773 75.1036 26.968ZM84.6226 24.812V28.592C84.6226 28.9467 84.716 29.2313 84.9026 29.446C85.0893 29.6513 85.3506 29.754 85.6866 29.754C86.0226 29.754 86.3446 29.5907 86.6526 29.264L87.2966 30.37C86.746 30.8647 86.1346 31.112 85.4626 31.112C84.8 31.112 84.2306 30.8833 83.7546 30.426C83.288 29.9593 83.0546 29.334 83.0546 28.55V24.812H82.1166V23.552H83.0546V21.214H84.6226V23.552H86.5826V24.812H84.6226ZM88.8262 30.804C88.6302 30.5987 88.5322 30.3513 88.5322 30.062C88.5322 29.7727 88.6302 29.53 88.8262 29.334C89.0315 29.1287 89.2789 29.026 89.5682 29.026C89.8575 29.026 90.1049 29.1287 90.3102 29.334C90.5155 29.53 90.6182 29.7727 90.6182 30.062C90.6182 30.3513 90.5155 30.5987 90.3102 30.804C90.1049 31.0093 89.8575 31.112 89.5682 31.112C89.2789 31.112 89.0315 31.0093 88.8262 30.804ZM104.944 24.392C104.944 26.0067 104.239 27.024 102.83 27.444L105.392 31H103.292L100.954 27.71H98.7838V31H97.1318V21.214H100.772C102.265 21.214 103.334 21.466 103.978 21.97C104.622 22.474 104.944 23.2813 104.944 24.392ZM100.842 26.212C101.775 26.212 102.41 26.0673 102.746 25.778C103.082 25.4887 103.25 25.0267 103.25 24.392C103.25 23.748 103.077 23.3093 102.732 23.076C102.386 22.8333 101.77 22.712 100.884 22.712H98.7838V26.212H100.842ZM114.391 21.214V22.768H109.169V25.358H113.859V26.828H109.169V29.446H114.559V31H107.517V21.214H114.391ZM116.878 31V21.214H118.53V29.432H122.996V31H116.878ZM125.007 21.214H126.659V31H125.007V21.214ZM133.265 22.726V31H131.613V22.726H128.645V21.214H136.233V22.726H133.265ZM143.772 29.04C144.22 29.488 144.784 29.712 145.466 29.712C146.147 29.712 146.707 29.488 147.146 29.04C147.594 28.5827 147.818 27.9947 147.818 27.276C147.818 26.5573 147.594 25.974 147.146 25.526C146.707 25.0687 146.147 24.84 145.466 24.84C144.784 24.84 144.22 25.0687 143.772 25.526C143.333 25.974 143.114 26.5573 143.114 27.276C143.114 27.9947 143.333 28.5827 143.772 29.04ZM148.266 30.006C147.519 30.7433 146.586 31.112 145.466 31.112C144.346 31.112 143.412 30.7433 142.666 30.006C141.919 29.2593 141.546 28.3493 141.546 27.276C141.546 26.2027 141.919 25.2973 142.666 24.56C143.412 23.8133 144.346 23.44 145.466 23.44C146.586 23.44 147.519 23.8133 148.266 24.56C149.012 25.2973 149.386 26.2027 149.386 27.276C149.386 28.3493 149.012 29.2593 148.266 30.006ZM153.191 22.936V23.552H155.151V24.812H153.191V31H151.623V24.812H150.685V23.552H151.623V22.978C151.623 22.194 151.856 21.5733 152.323 21.116C152.799 20.6493 153.368 20.416 154.031 20.416C154.703 20.416 155.314 20.6633 155.865 21.158L155.221 22.264C154.913 21.9373 154.591 21.774 154.255 21.774C153.919 21.774 153.658 21.8813 153.471 22.096C153.284 22.3013 153.191 22.5813 153.191 22.936ZM158.791 22.936V23.552H160.751V24.812H158.791V31H157.223V24.812H156.285V23.552H157.223V22.978C157.223 22.194 157.457 21.5733 157.923 21.116C158.399 20.6493 158.969 20.416 159.631 20.416C160.303 20.416 160.915 20.6633 161.465 21.158L160.821 22.264C160.513 21.9373 160.191 21.774 159.855 21.774C159.519 21.774 159.258 21.8813 159.071 22.096C158.885 22.3013 158.791 22.5813 158.791 22.936ZM164.028 31H162.46V23.552H164.028V31ZM162.558 22.068C162.362 21.872 162.264 21.6387 162.264 21.368C162.264 21.0973 162.362 20.864 162.558 20.668C162.754 20.472 162.987 20.374 163.258 20.374C163.528 20.374 163.762 20.472 163.958 20.668C164.154 20.864 164.252 21.0973 164.252 21.368C164.252 21.6387 164.154 21.872 163.958 22.068C163.762 22.264 163.528 22.362 163.258 22.362C162.987 22.362 162.754 22.264 162.558 22.068ZM169.806 31.112C168.77 31.112 167.878 30.762 167.132 30.062C166.385 29.3527 166.012 28.4287 166.012 27.29C166.012 26.1513 166.399 25.2273 167.174 24.518C167.958 23.7993 168.91 23.44 170.03 23.44C171.15 23.44 172.097 23.8273 172.872 24.602L171.948 25.736C171.304 25.176 170.655 24.896 170.002 24.896C169.348 24.896 168.779 25.1153 168.294 25.554C167.818 25.9833 167.58 26.5433 167.58 27.234C167.58 27.9153 167.818 28.494 168.294 28.97C168.77 29.446 169.353 29.684 170.044 29.684C170.744 29.684 171.402 29.3667 172.018 28.732L172.942 29.74C172.036 30.6547 170.991 31.112 169.806 31.112ZM176.336 31H174.768V23.552H176.336V31ZM174.866 22.068C174.67 21.872 174.572 21.6387 174.572 21.368C174.572 21.0973 174.67 20.864 174.866 20.668C175.062 20.472 175.295 20.374 175.566 20.374C175.837 20.374 176.07 20.472 176.266 20.668C176.462 20.864 176.56 21.0973 176.56 21.368C176.56 21.6387 176.462 21.872 176.266 22.068C176.07 22.264 175.837 22.362 175.566 22.362C175.295 22.362 175.062 22.264 174.866 22.068ZM184.844 31H183.416V30.006C182.8 30.7433 181.974 31.112 180.938 31.112C180.163 31.112 179.519 30.8927 179.006 30.454C178.502 30.0153 178.25 29.432 178.25 28.704C178.25 27.9667 178.52 27.416 179.062 27.052C179.603 26.688 180.336 26.506 181.26 26.506H183.29V26.226C183.29 25.2367 182.739 24.742 181.638 24.742C180.947 24.742 180.228 24.994 179.482 25.498L178.782 24.518C179.687 23.7993 180.714 23.44 181.862 23.44C182.739 23.44 183.453 23.664 184.004 24.112C184.564 24.5507 184.844 25.246 184.844 26.198V31ZM183.276 28.228V27.598H181.512C180.382 27.598 179.818 27.9527 179.818 28.662C179.818 29.026 179.958 29.306 180.238 29.502C180.518 29.6887 180.905 29.782 181.4 29.782C181.904 29.782 182.342 29.642 182.716 29.362C183.089 29.082 183.276 28.704 183.276 28.228ZM188.795 31H187.227V20.612H188.795V31ZM198.614 31.112C197.578 31.112 196.687 30.762 195.94 30.062C195.194 29.3527 194.82 28.4287 194.82 27.29C194.82 26.1513 195.208 25.2273 195.982 24.518C196.766 23.7993 197.718 23.44 198.838 23.44C199.958 23.44 200.906 23.8273 201.68 24.602L200.756 25.736C200.112 25.176 199.464 24.896 198.81 24.896C198.157 24.896 197.588 25.1153 197.102 25.554C196.626 25.9833 196.388 26.5433 196.388 27.234C196.388 27.9153 196.626 28.494 197.102 28.97C197.578 29.446 198.162 29.684 198.852 29.684C199.552 29.684 200.21 29.3667 200.826 28.732L201.75 29.74C200.845 30.6547 199.8 31.112 198.614 31.112ZM205.162 29.04C205.61 29.488 206.175 29.712 206.856 29.712C207.538 29.712 208.098 29.488 208.536 29.04C208.984 28.5827 209.208 27.9947 209.208 27.276C209.208 26.5573 208.984 25.974 208.536 25.526C208.098 25.0687 207.538 24.84 206.856 24.84C206.175 24.84 205.61 25.0687 205.162 25.526C204.724 25.974 204.504 26.5573 204.504 27.276C204.504 27.9947 204.724 28.5827 205.162 29.04ZM209.656 30.006C208.91 30.7433 207.976 31.112 206.856 31.112C205.736 31.112 204.803 30.7433 204.056 30.006C203.31 29.2593 202.936 28.3493 202.936 27.276C202.936 26.2027 203.31 25.2973 204.056 24.56C204.803 23.8133 205.736 23.44 206.856 23.44C207.976 23.44 208.91 23.8133 209.656 24.56C210.403 25.2973 210.776 26.2027 210.776 27.276C210.776 28.3493 210.403 29.2593 209.656 30.006ZM214.327 26.968V31H212.759V23.552H214.327V24.91C214.579 24.4527 214.924 24.0933 215.363 23.832C215.811 23.5707 216.292 23.44 216.805 23.44C217.645 23.44 218.322 23.6967 218.835 24.21C219.358 24.7233 219.619 25.4653 219.619 26.436V31H218.051V26.912C218.051 25.54 217.482 24.854 216.343 24.854C215.802 24.854 215.33 25.036 214.929 25.4C214.528 25.7547 214.327 26.2773 214.327 26.968ZM227.316 28.774C227.316 29.4833 227.059 30.0527 226.546 30.482C226.032 30.902 225.374 31.112 224.572 31.112C224.03 31.112 223.466 31.014 222.878 30.818C222.299 30.622 221.786 30.3467 221.338 29.992L222.094 28.774C222.962 29.4273 223.802 29.754 224.614 29.754C224.968 29.754 225.248 29.6747 225.454 29.516C225.659 29.348 225.762 29.138 225.762 28.886C225.762 28.5127 225.267 28.1767 224.278 27.878C224.203 27.85 224.147 27.8313 224.11 27.822C222.56 27.402 221.786 26.702 221.786 25.722C221.786 25.0313 222.052 24.4807 222.584 24.07C223.125 23.65 223.825 23.44 224.684 23.44C225.542 23.44 226.354 23.692 227.12 24.196L226.532 25.358C225.925 24.9567 225.267 24.756 224.558 24.756C224.184 24.756 223.881 24.826 223.648 24.966C223.414 25.0967 223.298 25.2973 223.298 25.568C223.298 25.8107 223.419 25.988 223.662 26.1C223.83 26.184 224.063 26.2633 224.362 26.338C224.67 26.4127 224.94 26.4873 225.174 26.562C225.407 26.6367 225.631 26.7207 225.846 26.814C226.07 26.9073 226.308 27.038 226.56 27.206C227.064 27.542 227.316 28.0647 227.316 28.774ZM236.222 27.962H230.384C230.421 28.5033 230.668 28.942 231.126 29.278C231.583 29.6047 232.106 29.768 232.694 29.768C233.627 29.768 234.336 29.474 234.822 28.886L235.718 29.866C234.915 30.6967 233.87 31.112 232.582 31.112C231.536 31.112 230.645 30.7667 229.908 30.076C229.18 29.376 228.816 28.4427 228.816 27.276C228.816 26.1 229.189 25.1667 229.936 24.476C230.682 23.7853 231.56 23.44 232.568 23.44C233.585 23.44 234.448 23.748 235.158 24.364C235.867 24.9707 236.222 25.8107 236.222 26.884V27.962ZM230.384 26.73H234.654C234.654 26.1047 234.458 25.624 234.066 25.288C233.674 24.952 233.188 24.784 232.61 24.784C232.04 24.784 231.527 24.9613 231.07 25.316C230.612 25.6613 230.384 26.1327 230.384 26.73ZM241.184 31.112C240.251 31.112 239.429 30.7527 238.72 30.034C238.02 29.3153 237.67 28.382 237.67 27.234C237.67 26.086 238.025 25.1667 238.734 24.476C239.443 23.7853 240.297 23.44 241.296 23.44C242.295 23.44 243.102 23.9113 243.718 24.854V23.552H245.286V33.716H243.718V29.88C242.971 30.7013 242.127 31.112 241.184 31.112ZM239.238 27.304C239.238 28.0133 239.467 28.592 239.924 29.04C240.381 29.488 240.918 29.712 241.534 29.712C242.15 29.712 242.673 29.488 243.102 29.04C243.531 28.5827 243.746 27.9993 243.746 27.29C243.746 26.5807 243.531 25.9927 243.102 25.526C242.673 25.05 242.145 24.812 241.52 24.812C240.895 24.812 240.358 25.05 239.91 25.526C239.462 25.9927 239.238 26.5853 239.238 27.304ZM252.96 27.584V23.552H254.528V31H252.96V29.642C252.708 30.0993 252.358 30.4587 251.91 30.72C251.472 30.9813 250.996 31.112 250.482 31.112C249.642 31.112 248.961 30.8553 248.438 30.342C247.925 29.8287 247.668 29.0867 247.668 28.116V23.552H249.236V27.64C249.236 29.012 249.806 29.698 250.944 29.698C251.486 29.698 251.957 29.5207 252.358 29.166C252.76 28.802 252.96 28.2747 252.96 27.584ZM263.933 27.962H258.095C258.132 28.5033 258.38 28.942 258.837 29.278C259.294 29.6047 259.817 29.768 260.405 29.768C261.338 29.768 262.048 29.474 262.533 28.886L263.429 29.866C262.626 30.6967 261.581 31.112 260.293 31.112C259.248 31.112 258.356 30.7667 257.619 30.076C256.891 29.376 256.527 28.4427 256.527 27.276C256.527 26.1 256.9 25.1667 257.647 24.476C258.394 23.7853 259.271 23.44 260.279 23.44C261.296 23.44 262.16 23.748 262.869 24.364C263.578 24.9707 263.933 25.8107 263.933 26.884V27.962ZM258.095 26.73H262.365C262.365 26.1047 262.169 25.624 261.777 25.288C261.385 24.952 260.9 24.784 260.321 24.784C259.752 24.784 259.238 24.9613 258.781 25.316C258.324 25.6613 258.095 26.1327 258.095 26.73ZM267.425 26.968V31H265.857V23.552H267.425V24.91C267.677 24.4527 268.023 24.0933 268.461 23.832C268.909 23.5707 269.39 23.44 269.903 23.44C270.743 23.44 271.42 23.6967 271.933 24.21C272.456 24.7233 272.717 25.4653 272.717 26.436V31H271.149V26.912C271.149 25.54 270.58 24.854 269.441 24.854C268.9 24.854 268.429 25.036 268.027 25.4C267.626 25.7547 267.425 26.2773 267.425 26.968ZM276.945 24.812V28.592C276.945 28.9467 277.038 29.2313 277.225 29.446C277.411 29.6513 277.673 29.754 278.009 29.754C278.345 29.754 278.667 29.5907 278.975 29.264L279.619 30.37C279.068 30.8647 278.457 31.112 277.785 31.112C277.122 31.112 276.553 30.8833 276.077 30.426C275.61 29.9593 275.377 29.334 275.377 28.55V24.812H274.439V23.552H275.377V21.214H276.945V23.552H278.905V24.812H276.945ZM288.144 31.112C287.201 31.112 286.38 30.7573 285.68 30.048C284.98 29.3387 284.63 28.4053 284.63 27.248C284.63 26.0907 284.989 25.1667 285.708 24.476C286.427 23.7853 287.281 23.44 288.27 23.44C289.269 23.44 290.071 23.86 290.678 24.7V20.612H292.246V31H290.678V29.88C290.099 30.7013 289.255 31.112 288.144 31.112ZM286.198 27.318C286.198 28.0273 286.427 28.606 286.884 29.054C287.341 29.502 287.878 29.726 288.494 29.726C289.11 29.726 289.633 29.502 290.062 29.054C290.491 28.5967 290.706 28.0133 290.706 27.304C290.706 26.5947 290.491 26.002 290.062 25.526C289.633 25.05 289.105 24.812 288.48 24.812C287.855 24.812 287.318 25.05 286.87 25.526C286.422 26.002 286.198 26.5993 286.198 27.318ZM296.448 29.04C296.896 29.488 297.461 29.712 298.142 29.712C298.823 29.712 299.383 29.488 299.822 29.04C300.27 28.5827 300.494 27.9947 300.494 27.276C300.494 26.5573 300.27 25.974 299.822 25.526C299.383 25.0687 298.823 24.84 298.142 24.84C297.461 24.84 296.896 25.0687 296.448 25.526C296.009 25.974 295.79 26.5573 295.79 27.276C295.79 27.9947 296.009 28.5827 296.448 29.04ZM300.942 30.006C300.195 30.7433 299.262 31.112 298.142 31.112C297.022 31.112 296.089 30.7433 295.342 30.006C294.595 29.2593 294.222 28.3493 294.222 27.276C294.222 26.2027 294.595 25.2973 295.342 24.56C296.089 23.8133 297.022 23.44 298.142 23.44C299.262 23.44 300.195 23.8133 300.942 24.56C301.689 25.2973 302.062 26.2027 302.062 27.276C302.062 28.3493 301.689 29.2593 300.942 30.006ZM305.781 29.04C306.229 29.488 306.794 29.712 307.475 29.712C308.156 29.712 308.716 29.488 309.155 29.04C309.603 28.5827 309.827 27.9947 309.827 27.276C309.827 26.5573 309.603 25.974 309.155 25.526C308.716 25.0687 308.156 24.84 307.475 24.84C306.794 24.84 306.229 25.0687 305.781 25.526C305.342 25.974 305.123 26.5573 305.123 27.276C305.123 27.9947 305.342 28.5827 305.781 29.04ZM310.275 30.006C309.528 30.7433 308.595 31.112 307.475 31.112C306.355 31.112 305.422 30.7433 304.675 30.006C303.928 29.2593 303.555 28.3493 303.555 27.276C303.555 26.2027 303.928 25.2973 304.675 24.56C305.422 23.8133 306.355 23.44 307.475 23.44C308.595 23.44 309.528 23.8133 310.275 24.56C311.022 25.2973 311.395 26.2027 311.395 27.276C311.395 28.3493 311.022 29.2593 310.275 30.006ZM317.284 25.022C316.509 25.022 315.926 25.274 315.534 25.778C315.142 26.282 314.946 26.9587 314.946 27.808V31H313.378V23.552H314.946V25.05C315.198 24.5833 315.538 24.2007 315.968 23.902C316.406 23.6033 316.868 23.4493 317.354 23.44L317.368 25.022C317.34 25.022 317.312 25.022 317.284 25.022ZM330.282 21.214V22.768H325.06V25.358H329.75V26.828H325.06V29.446H330.45V31H323.408V21.214H330.282ZM340.104 21.214H341.756V31H339.964L334.42 23.86V31H332.768V21.214H334.42L340.104 28.522V21.214ZM344.671 21.214H346.323V31H344.671V21.214ZM350.885 31H349.233V21.214H351.809L354.763 27.36L357.717 21.214H360.279V31H358.627V23.356L355.211 30.146H354.287L350.885 23.356V31ZM375.054 24.392C375.054 26.0067 374.349 27.024 372.94 27.444L375.502 31H373.402L371.064 27.71H368.894V31H367.242V21.214H370.882C372.375 21.214 373.444 21.466 374.088 21.97C374.732 22.474 375.054 23.2813 375.054 24.392ZM370.952 26.212C371.885 26.212 372.52 26.0673 372.856 25.778C373.192 25.4887 373.36 25.0267 373.36 24.392C373.36 23.748 373.187 23.3093 372.842 23.076C372.497 22.8333 371.881 22.712 370.994 22.712H368.894V26.212H370.952ZM384.502 21.214V22.768H379.28V25.358H383.97V26.828H379.28V29.446H384.67V31H377.628V21.214H384.502ZM386.988 31V21.214H388.64V29.432H393.106V31H386.988ZM395.117 21.214H396.769V31H395.117V21.214ZM403.375 22.726V31H401.723V22.726H398.755V21.214H406.343V22.726H403.375ZM414.022 31H412.37V21.214H414.946L417.9 27.36L420.854 21.214H423.416V31H421.764V23.356L418.348 30.146H417.424L414.022 23.356V31ZM427.849 29.04C428.297 29.488 428.862 29.712 429.543 29.712C430.225 29.712 430.785 29.488 431.223 29.04C431.671 28.5827 431.895 27.9947 431.895 27.276C431.895 26.5573 431.671 25.974 431.223 25.526C430.785 25.0687 430.225 24.84 429.543 24.84C428.862 24.84 428.297 25.0687 427.849 25.526C427.411 25.974 427.191 26.5573 427.191 27.276C427.191 27.9947 427.411 28.5827 427.849 29.04ZM432.343 30.006C431.597 30.7433 430.663 31.112 429.543 31.112C428.423 31.112 427.49 30.7433 426.743 30.006C425.997 29.2593 425.623 28.3493 425.623 27.276C425.623 26.2027 425.997 25.2973 426.743 24.56C427.49 23.8133 428.423 23.44 429.543 23.44C430.663 23.44 431.597 23.8133 432.343 24.56C433.09 25.2973 433.463 26.2027 433.463 27.276C433.463 28.3493 433.09 29.2593 432.343 30.006ZM437.014 31H435.446V20.612H437.014V31ZM441.056 31H439.488V20.612H441.056V31ZM445.098 31H443.53V23.552H445.098V31ZM443.628 22.068C443.432 21.872 443.334 21.6387 443.334 21.368C443.334 21.0973 443.432 20.864 443.628 20.668C443.824 20.472 444.057 20.374 444.328 20.374C444.598 20.374 444.832 20.472 445.028 20.668C445.224 20.864 445.322 21.0973 445.322 21.368C445.322 21.6387 445.224 21.872 445.028 22.068C444.832 22.264 444.598 22.362 444.328 22.362C444.057 22.362 443.824 22.264 443.628 22.068ZM454.502 27.962H448.664C448.701 28.5033 448.948 28.942 449.406 29.278C449.863 29.6047 450.386 29.768 450.974 29.768C451.907 29.768 452.616 29.474 453.102 28.886L453.998 29.866C453.195 30.6967 452.15 31.112 450.862 31.112C449.816 31.112 448.925 30.7667 448.188 30.076C447.46 29.376 447.096 28.4427 447.096 27.276C447.096 26.1 447.469 25.1667 448.216 24.476C448.962 23.7853 449.84 23.44 450.848 23.44C451.865 23.44 452.728 23.748 453.438 24.364C454.147 24.9707 454.502 25.8107 454.502 26.884V27.962ZM448.664 26.73H452.934C452.934 26.1047 452.738 25.624 452.346 25.288C451.954 24.952 451.468 24.784 450.89 24.784C450.32 24.784 449.807 24.9613 449.35 25.316C448.892 25.6613 448.664 26.1327 448.664 26.73ZM456.51 30.804C456.314 30.5987 456.216 30.3513 456.216 30.062C456.216 29.7727 456.314 29.53 456.51 29.334C456.715 29.1287 456.962 29.026 457.252 29.026C457.541 29.026 457.788 29.1287 457.994 29.334C458.199 29.53 458.302 29.7727 458.302 30.062C458.302 30.3513 458.199 30.5987 457.994 30.804C457.788 31.0093 457.541 31.112 457.252 31.112C456.962 31.112 456.715 31.0093 456.51 30.804ZM8.232 41.214V42.768H3.01V45.358H7.7V46.828H3.01V49.446H8.4V51H1.358V41.214H8.232ZM11.6842 43.552L13.2802 46.002L14.9322 43.552H16.7942L14.1902 47.192L16.9062 51H14.9742L13.1962 48.522L11.4602 51H9.62616L12.2722 47.206L9.76616 43.552H11.6842ZM21.8048 51.112C20.7688 51.112 19.8775 50.762 19.1308 50.062C18.3841 49.3527 18.0108 48.4287 18.0108 47.29C18.0108 46.1513 18.3981 45.2273 19.1728 44.518C19.9568 43.7993 20.9088 43.44 22.0288 43.44C23.1488 43.44 24.0961 43.8273 24.8708 44.602L23.9468 45.736C23.3028 45.176 22.6541 44.896 22.0008 44.896C21.3475 44.896 20.7781 45.1153 20.2928 45.554C19.8168 45.9833 19.5788 46.5433 19.5788 47.234C19.5788 47.9153 19.8168 48.494 20.2928 48.97C20.7688 49.446 21.3521 49.684 22.0428 49.684C22.7428 49.684 23.4008 49.3667 24.0168 48.732L24.9408 49.74C24.0355 50.6547 22.9901 51.112 21.8048 51.112ZM28.3352 51H26.7672V43.552H28.3352V51ZM26.8652 42.068C26.6692 41.872 26.5712 41.6387 26.5712 41.368C26.5712 41.0973 26.6692 40.864 26.8652 40.668C27.0612 40.472 27.2945 40.374 27.5652 40.374C27.8359 40.374 28.0692 40.472 28.2652 40.668C28.4612 40.864 28.5592 41.0973 28.5592 41.368C28.5592 41.6387 28.4612 41.872 28.2652 42.068C28.0692 42.264 27.8359 42.362 27.5652 42.362C27.2945 42.362 27.0612 42.264 26.8652 42.068ZM32.741 44.812V48.592C32.741 48.9467 32.8343 49.2313 33.021 49.446C33.2077 49.6513 33.469 49.754 33.805 49.754C34.141 49.754 34.463 49.5907 34.771 49.264L35.415 50.37C34.8643 50.8647 34.253 51.112 33.581 51.112C32.9183 51.112 32.349 50.8833 31.873 50.426C31.4063 49.9593 31.173 49.334 31.173 48.55V44.812H30.235V43.552H31.173V41.214H32.741V43.552H34.701V44.812H32.741ZM42.8946 51H41.4666V50.006C40.8506 50.7433 40.0246 51.112 38.9886 51.112C38.2139 51.112 37.5699 50.8927 37.0566 50.454C36.5526 50.0153 36.3006 49.432 36.3006 48.704C36.3006 47.9667 36.5712 47.416 37.1126 47.052C37.6539 46.688 38.3866 46.506 39.3106 46.506H41.3406V46.226C41.3406 45.2367 40.7899 44.742 39.6886 44.742C38.9979 44.742 38.2792 44.994 37.5326 45.498L36.8326 44.518C37.7379 43.7993 38.7646 43.44 39.9126 43.44C40.7899 43.44 41.5039 43.664 42.0546 44.112C42.6146 44.5507 42.8946 45.246 42.8946 46.198V51ZM41.3266 48.228V47.598H39.5626C38.4332 47.598 37.8686 47.9527 37.8686 48.662C37.8686 49.026 38.0086 49.306 38.2886 49.502C38.5686 49.6887 38.9559 49.782 39.4506 49.782C39.9546 49.782 40.3932 49.642 40.7666 49.362C41.1399 49.082 41.3266 48.704 41.3266 48.228ZM47.1273 44.812V48.592C47.1273 48.9467 47.2207 49.2313 47.4073 49.446C47.594 49.6513 47.8553 49.754 48.1913 49.754C48.5273 49.754 48.8493 49.5907 49.1573 49.264L49.8013 50.37C49.2507 50.8647 48.6393 51.112 47.9673 51.112C47.3047 51.112 46.7353 50.8833 46.2593 50.426C45.7927 49.9593 45.5593 49.334 45.5593 48.55V44.812H44.6213V43.552H45.5593V41.214H47.1273V43.552H49.0873V44.812H47.1273ZM52.8149 51H51.2469V43.552H52.8149V51ZM51.3449 42.068C51.1489 41.872 51.0509 41.6387 51.0509 41.368C51.0509 41.0973 51.1489 40.864 51.3449 40.668C51.5409 40.472 51.7742 40.374 52.0449 40.374C52.3156 40.374 52.5489 40.472 52.7449 40.668C52.9409 40.864 53.0389 41.0973 53.0389 41.368C53.0389 41.6387 52.9409 41.872 52.7449 42.068C52.5489 42.264 52.3156 42.362 52.0449 42.362C51.7742 42.362 51.5409 42.264 51.3449 42.068ZM57.0247 49.04C57.4727 49.488 58.0374 49.712 58.7187 49.712C59.4 49.712 59.96 49.488 60.3987 49.04C60.8467 48.5827 61.0707 47.9947 61.0707 47.276C61.0707 46.5573 60.8467 45.974 60.3987 45.526C59.96 45.0687 59.4 44.84 58.7187 44.84C58.0374 44.84 57.4727 45.0687 57.0247 45.526C56.586 45.974 56.3667 46.5573 56.3667 47.276C56.3667 47.9947 56.586 48.5827 57.0247 49.04ZM61.5187 50.006C60.772 50.7433 59.8387 51.112 58.7187 51.112C57.5987 51.112 56.6654 50.7433 55.9187 50.006C55.172 49.2593 54.7987 48.3493 54.7987 47.276C54.7987 46.2027 55.172 45.2973 55.9187 44.56C56.6654 43.8133 57.5987 43.44 58.7187 43.44C59.8387 43.44 60.772 43.8133 61.5187 44.56C62.2654 45.2973 62.6387 46.2027 62.6387 47.276C62.6387 48.3493 62.2654 49.2593 61.5187 50.006ZM66.1895 46.968V51H64.6215V43.552H66.1895V44.91C66.4415 44.4527 66.7868 44.0933 67.2255 43.832C67.6735 43.5707 68.1542 43.44 68.6675 43.44C69.5075 43.44 70.1842 43.6967 70.6975 44.21C71.2202 44.7233 71.4815 45.4653 71.4815 46.436V51H69.9135V46.912C69.9135 45.54 69.3442 44.854 68.2055 44.854C67.6642 44.854 67.1928 45.036 66.7915 45.4C66.3902 45.7547 66.1895 46.2773 66.1895 46.968ZM79.8881 51L76.8921 43.552H78.5161L80.7841 49.18L83.0521 43.552H84.6761L81.6801 51H79.8881ZM93.0558 47.962H87.2178C87.2551 48.5033 87.5025 48.942 87.9598 49.278C88.4171 49.6047 88.9398 49.768 89.5278 49.768C90.4611 49.768 91.1705 49.474 91.6558 48.886L92.5518 49.866C91.7491 50.6967 90.7038 51.112 89.4158 51.112C88.3705 51.112 87.4791 50.7667 86.7418 50.076C86.0138 49.376 85.6498 48.4427 85.6498 47.276C85.6498 46.1 86.0231 45.1667 86.7698 44.476C87.5165 43.7853 88.3938 43.44 89.4018 43.44C90.4191 43.44 91.2825 43.748 91.9918 44.364C92.7011 44.9707 93.0558 45.8107 93.0558 46.884V47.962ZM87.2178 46.73H91.4878C91.4878 46.1047 91.2918 45.624 90.8998 45.288C90.5078 44.952 90.0225 44.784 89.4438 44.784C88.8745 44.784 88.3611 44.9613 87.9038 45.316C87.4465 45.6613 87.2178 46.1327 87.2178 46.73ZM96.5481 46.968V51H94.9801V43.552H96.5481V44.91C96.8001 44.4527 97.1454 44.0933 97.5841 43.832C98.0321 43.5707 98.5128 43.44 99.0261 43.44C99.8661 43.44 100.543 43.6967 101.056 44.21C101.579 44.7233 101.84 45.4653 101.84 46.436V51H100.272V46.912C100.272 45.54 99.7028 44.854 98.5641 44.854C98.0228 44.854 97.5514 45.036 97.1501 45.4C96.7488 45.7547 96.5481 46.2773 96.5481 46.968ZM105.799 51H104.231V43.552H105.799V51ZM104.329 42.068C104.133 41.872 104.035 41.6387 104.035 41.368C104.035 41.0973 104.133 40.864 104.329 40.668C104.525 40.472 104.758 40.374 105.029 40.374C105.3 40.374 105.533 40.472 105.729 40.668C105.925 40.864 106.023 41.0973 106.023 41.368C106.023 41.6387 105.925 41.872 105.729 42.068C105.533 42.264 105.3 42.362 105.029 42.362C104.758 42.362 104.525 42.264 104.329 42.068ZM114.307 51H112.879V50.006C112.263 50.7433 111.437 51.112 110.401 51.112C109.626 51.112 108.982 50.8927 108.469 50.454C107.965 50.0153 107.713 49.432 107.713 48.704C107.713 47.9667 107.983 47.416 108.525 47.052C109.066 46.688 109.799 46.506 110.723 46.506H112.753V46.226C112.753 45.2367 112.202 44.742 111.101 44.742C110.41 44.742 109.691 44.994 108.945 45.498L108.245 44.518C109.15 43.7993 110.177 43.44 111.325 43.44C112.202 43.44 112.916 43.664 113.467 44.112C114.027 44.5507 114.307 45.246 114.307 46.198V51ZM112.739 48.228V47.598H110.975C109.845 47.598 109.281 47.9527 109.281 48.662C109.281 49.026 109.421 49.306 109.701 49.502C109.981 49.6887 110.368 49.782 110.863 49.782C111.367 49.782 111.805 49.642 112.179 49.362C112.552 49.082 112.739 48.704 112.739 48.228ZM118.257 51H116.689V40.612H118.257V51ZM128.077 51.112C127.041 51.112 126.15 50.762 125.403 50.062C124.656 49.3527 124.283 48.4287 124.283 47.29C124.283 46.1513 124.67 45.2273 125.445 44.518C126.229 43.7993 127.181 43.44 128.301 43.44C129.421 43.44 130.368 43.8273 131.143 44.602L130.219 45.736C129.575 45.176 128.926 44.896 128.273 44.896C127.62 44.896 127.05 45.1153 126.565 45.554C126.089 45.9833 125.851 46.5433 125.851 47.234C125.851 47.9153 126.089 48.494 126.565 48.97C127.041 49.446 127.624 49.684 128.315 49.684C129.015 49.684 129.673 49.3667 130.289 48.732L131.213 49.74C130.308 50.6547 129.262 51.112 128.077 51.112ZM134.625 49.04C135.073 49.488 135.638 49.712 136.319 49.712C137 49.712 137.56 49.488 137.999 49.04C138.447 48.5827 138.671 47.9947 138.671 47.276C138.671 46.5573 138.447 45.974 137.999 45.526C137.56 45.0687 137 44.84 136.319 44.84C135.638 44.84 135.073 45.0687 134.625 45.526C134.186 45.974 133.967 46.5573 133.967 47.276C133.967 47.9947 134.186 48.5827 134.625 49.04ZM139.119 50.006C138.372 50.7433 137.439 51.112 136.319 51.112C135.199 51.112 134.266 50.7433 133.519 50.006C132.772 49.2593 132.399 48.3493 132.399 47.276C132.399 46.2027 132.772 45.2973 133.519 44.56C134.266 43.8133 135.199 43.44 136.319 43.44C137.439 43.44 138.372 43.8133 139.119 44.56C139.866 45.2973 140.239 46.2027 140.239 47.276C140.239 48.3493 139.866 49.2593 139.119 50.006ZM143.79 46.968V51H142.222V43.552H143.79V44.91C144.042 44.4527 144.387 44.0933 144.826 43.832C145.274 43.5707 145.755 43.44 146.268 43.44C147.108 43.44 147.785 43.6967 148.298 44.21C148.821 44.7233 149.082 45.4653 149.082 46.436V51H147.514V46.912C147.514 45.54 146.945 44.854 145.806 44.854C145.265 44.854 144.793 45.036 144.392 45.4C143.991 45.7547 143.79 46.2773 143.79 46.968ZM156.779 48.774C156.779 49.4833 156.522 50.0527 156.009 50.482C155.495 50.902 154.837 51.112 154.035 51.112C153.493 51.112 152.929 51.014 152.341 50.818C151.762 50.622 151.249 50.3467 150.801 49.992L151.557 48.774C152.425 49.4273 153.265 49.754 154.077 49.754C154.431 49.754 154.711 49.6747 154.917 49.516C155.122 49.348 155.225 49.138 155.225 48.886C155.225 48.5127 154.73 48.1767 153.741 47.878C153.666 47.85 153.61 47.8313 153.573 47.822C152.023 47.402 151.249 46.702 151.249 45.722C151.249 45.0313 151.515 44.4807 152.047 44.07C152.588 43.65 153.288 43.44 154.147 43.44C155.005 43.44 155.817 43.692 156.583 44.196L155.995 45.358C155.388 44.9567 154.73 44.756 154.021 44.756C153.647 44.756 153.344 44.826 153.111 44.966C152.877 45.0967 152.761 45.2973 152.761 45.568C152.761 45.8107 152.882 45.988 153.125 46.1C153.293 46.184 153.526 46.2633 153.825 46.338C154.133 46.4127 154.403 46.4873 154.637 46.562C154.87 46.6367 155.094 46.7207 155.309 46.814C155.533 46.9073 155.771 47.038 156.023 47.206C156.527 47.542 156.779 48.0647 156.779 48.774ZM165.685 47.962H159.847C159.884 48.5033 160.131 48.942 160.589 49.278C161.046 49.6047 161.569 49.768 162.157 49.768C163.09 49.768 163.799 49.474 164.285 48.886L165.181 49.866C164.378 50.6967 163.333 51.112 162.045 51.112C160.999 51.112 160.108 50.7667 159.371 50.076C158.643 49.376 158.279 48.4427 158.279 47.276C158.279 46.1 158.652 45.1667 159.399 44.476C160.145 43.7853 161.023 43.44 162.031 43.44C163.048 43.44 163.911 43.748 164.621 44.364C165.33 44.9707 165.685 45.8107 165.685 46.884V47.962ZM159.847 46.73H164.117C164.117 46.1047 163.921 45.624 163.529 45.288C163.137 44.952 162.651 44.784 162.073 44.784C161.503 44.784 160.99 44.9613 160.533 45.316C160.075 45.6613 159.847 46.1327 159.847 46.73ZM170.647 51.112C169.714 51.112 168.892 50.7527 168.183 50.034C167.483 49.3153 167.133 48.382 167.133 47.234C167.133 46.086 167.488 45.1667 168.197 44.476C168.906 43.7853 169.76 43.44 170.759 43.44C171.758 43.44 172.565 43.9113 173.181 44.854V43.552H174.749V53.716H173.181V49.88C172.434 50.7013 171.59 51.112 170.647 51.112ZM168.701 47.304C168.701 48.0133 168.93 48.592 169.387 49.04C169.844 49.488 170.381 49.712 170.997 49.712C171.613 49.712 172.136 49.488 172.565 49.04C172.994 48.5827 173.209 47.9993 173.209 47.29C173.209 46.5807 172.994 45.9927 172.565 45.526C172.136 45.05 171.608 44.812 170.983 44.812C170.358 44.812 169.821 45.05 169.373 45.526C168.925 45.9927 168.701 46.5853 168.701 47.304ZM182.423 47.584V43.552H183.991V51H182.423V49.642C182.171 50.0993 181.821 50.4587 181.373 50.72C180.935 50.9813 180.459 51.112 179.945 51.112C179.105 51.112 178.424 50.8553 177.901 50.342C177.388 49.8287 177.131 49.0867 177.131 48.116V43.552H178.699V47.64C178.699 49.012 179.269 49.698 180.407 49.698C180.949 49.698 181.42 49.5207 181.821 49.166C182.223 48.802 182.423 48.2747 182.423 47.584ZM193.396 47.962H187.558C187.595 48.5033 187.843 48.942 188.3 49.278C188.757 49.6047 189.28 49.768 189.868 49.768C190.801 49.768 191.511 49.474 191.996 48.886L192.892 49.866C192.089 50.6967 191.044 51.112 189.756 51.112C188.711 51.112 187.819 50.7667 187.082 50.076C186.354 49.376 185.99 48.4427 185.99 47.276C185.99 46.1 186.363 45.1667 187.11 44.476C187.857 43.7853 188.734 43.44 189.742 43.44C190.759 43.44 191.623 43.748 192.332 44.364C193.041 44.9707 193.396 45.8107 193.396 46.884V47.962ZM187.558 46.73H191.828C191.828 46.1047 191.632 45.624 191.24 45.288C190.848 44.952 190.363 44.784 189.784 44.784C189.215 44.784 188.701 44.9613 188.244 45.316C187.787 45.6613 187.558 46.1327 187.558 46.73ZM196.888 46.968V51H195.32V43.552H196.888V44.91C197.14 44.4527 197.486 44.0933 197.924 43.832C198.372 43.5707 198.853 43.44 199.366 43.44C200.206 43.44 200.883 43.6967 201.396 44.21C201.919 44.7233 202.18 45.4653 202.18 46.436V51H200.612V46.912C200.612 45.54 200.043 44.854 198.904 44.854C198.363 44.854 197.892 45.036 197.49 45.4C197.089 45.7547 196.888 46.2773 196.888 46.968ZM206.407 44.812V48.592C206.407 48.9467 206.501 49.2313 206.687 49.446C206.874 49.6513 207.135 49.754 207.471 49.754C207.807 49.754 208.129 49.5907 208.437 49.264L209.081 50.37C208.531 50.8647 207.919 51.112 207.247 51.112C206.585 51.112 206.015 50.8833 205.539 50.426C205.073 49.9593 204.839 49.334 204.839 48.55V44.812H203.901V43.552H204.839V41.214H206.407V43.552H208.367V44.812H206.407ZM219.875 48.774C219.875 49.4833 219.618 50.0527 219.105 50.482C218.591 50.902 217.933 51.112 217.131 51.112C216.589 51.112 216.025 51.014 215.437 50.818C214.858 50.622 214.345 50.3467 213.897 49.992L214.653 48.774C215.521 49.4273 216.361 49.754 217.173 49.754C217.527 49.754 217.807 49.6747 218.013 49.516C218.218 49.348 218.321 49.138 218.321 48.886C218.321 48.5127 217.826 48.1767 216.837 47.878C216.762 47.85 216.706 47.8313 216.669 47.822C215.119 47.402 214.345 46.702 214.345 45.722C214.345 45.0313 214.611 44.4807 215.143 44.07C215.684 43.65 216.384 43.44 217.243 43.44C218.101 43.44 218.913 43.692 219.679 44.196L219.091 45.358C218.484 44.9567 217.826 44.756 217.117 44.756C216.743 44.756 216.44 44.826 216.207 44.966C215.973 45.0967 215.857 45.2973 215.857 45.568C215.857 45.8107 215.978 45.988 216.221 46.1C216.389 46.184 216.622 46.2633 216.921 46.338C217.229 46.4127 217.499 46.4873 217.733 46.562C217.966 46.6367 218.19 46.7207 218.405 46.814C218.629 46.9073 218.867 47.038 219.119 47.206C219.623 47.542 219.875 48.0647 219.875 48.774ZM228.781 47.962H222.943C222.98 48.5033 223.227 48.942 223.685 49.278C224.142 49.6047 224.665 49.768 225.253 49.768C226.186 49.768 226.895 49.474 227.381 48.886L228.277 49.866C227.474 50.6967 226.429 51.112 225.141 51.112C224.095 51.112 223.204 50.7667 222.467 50.076C221.739 49.376 221.375 48.4427 221.375 47.276C221.375 46.1 221.748 45.1667 222.495 44.476C223.241 43.7853 224.119 43.44 225.127 43.44C226.144 43.44 227.007 43.748 227.717 44.364C228.426 44.9707 228.781 45.8107 228.781 46.884V47.962ZM222.943 46.73H227.213C227.213 46.1047 227.017 45.624 226.625 45.288C226.233 44.952 225.747 44.784 225.169 44.784C224.599 44.784 224.086 44.9613 223.629 45.316C223.171 45.6613 222.943 46.1327 222.943 46.73ZM232.273 46.968V51H230.705V43.552H232.273V44.91C232.525 44.4527 232.87 44.0933 233.309 43.832C233.757 43.5707 234.238 43.44 234.751 43.44C235.591 43.44 236.268 43.6967 236.781 44.21C237.304 44.7233 237.565 45.4653 237.565 46.436V51H235.997V46.912C235.997 45.54 235.428 44.854 234.289 44.854C233.748 44.854 233.276 45.036 232.875 45.4C232.474 45.7547 232.273 46.2773 232.273 46.968ZM241.792 44.812V48.592C241.792 48.9467 241.885 49.2313 242.072 49.446C242.259 49.6513 242.52 49.754 242.856 49.754C243.192 49.754 243.514 49.5907 243.822 49.264L244.466 50.37C243.915 50.8647 243.304 51.112 242.632 51.112C241.969 51.112 241.4 50.8833 240.924 50.426C240.457 49.9593 240.224 49.334 240.224 48.55V44.812H239.286V43.552H240.224V41.214H241.792V43.552H243.752V44.812H241.792ZM251.522 46.968V51H249.954V43.552H251.522V44.91C251.774 44.4527 252.119 44.0933 252.558 43.832C253.006 43.5707 253.486 43.44 254 43.44C254.84 43.44 255.516 43.6967 256.03 44.21C256.552 44.7233 256.814 45.4653 256.814 46.436V51H255.246V46.912C255.246 45.54 254.676 44.854 253.538 44.854C252.996 44.854 252.525 45.036 252.124 45.4C251.722 45.7547 251.522 46.2773 251.522 46.968ZM260.94 49.04C261.388 49.488 261.953 49.712 262.634 49.712C263.316 49.712 263.876 49.488 264.314 49.04C264.762 48.5827 264.986 47.9947 264.986 47.276C264.986 46.5573 264.762 45.974 264.314 45.526C263.876 45.0687 263.316 44.84 262.634 44.84C261.953 44.84 261.388 45.0687 260.94 45.526C260.502 45.974 260.282 46.5573 260.282 47.276C260.282 47.9947 260.502 48.5827 260.94 49.04ZM265.434 50.006C264.688 50.7433 263.754 51.112 262.634 51.112C261.514 51.112 260.581 50.7433 259.834 50.006C259.088 49.2593 258.714 48.3493 258.714 47.276C258.714 46.2027 259.088 45.2973 259.834 44.56C260.581 43.8133 261.514 43.44 262.634 43.44C263.754 43.44 264.688 43.8133 265.434 44.56C266.181 45.2973 266.554 46.2027 266.554 47.276C266.554 48.3493 266.181 49.2593 265.434 50.006ZM273.843 48.774C273.843 49.4833 273.586 50.0527 273.073 50.482C272.56 50.902 271.902 51.112 271.099 51.112C270.558 51.112 269.993 51.014 269.405 50.818C268.826 50.622 268.313 50.3467 267.865 49.992L268.621 48.774C269.489 49.4273 270.329 49.754 271.141 49.754C271.496 49.754 271.776 49.6747 271.981 49.516C272.186 49.348 272.289 49.138 272.289 48.886C272.289 48.5127 271.794 48.1767 270.805 47.878C270.73 47.85 270.674 47.8313 270.637 47.822C269.088 47.402 268.313 46.702 268.313 45.722C268.313 45.0313 268.579 44.4807 269.111 44.07C269.652 43.65 270.352 43.44 271.211 43.44C272.07 43.44 272.882 43.692 273.647 44.196L273.059 45.358C272.452 44.9567 271.794 44.756 271.085 44.756C270.712 44.756 270.408 44.826 270.175 44.966C269.942 45.0967 269.825 45.2973 269.825 45.568C269.825 45.8107 269.946 45.988 270.189 46.1C270.357 46.184 270.59 46.2633 270.889 46.338C271.197 46.4127 271.468 46.4873 271.701 46.562C271.934 46.6367 272.158 46.7207 272.373 46.814C272.597 46.9073 272.835 47.038 273.087 47.206C273.591 47.542 273.843 48.0647 273.843 48.774ZM277.751 44.812V48.592C277.751 48.9467 277.844 49.2313 278.031 49.446C278.218 49.6513 278.479 49.754 278.815 49.754C279.151 49.754 279.473 49.5907 279.781 49.264L280.425 50.37C279.874 50.8647 279.263 51.112 278.591 51.112C277.928 51.112 277.359 50.8833 276.883 50.426C276.416 49.9593 276.183 49.334 276.183 48.55V44.812H275.245V43.552H276.183V41.214H277.751V43.552H279.711V44.812H277.751ZM285.777 45.022C285.002 45.022 284.419 45.274 284.027 45.778C283.635 46.282 283.439 46.9587 283.439 47.808V51H281.871V43.552H283.439V45.05C283.691 44.5833 284.031 44.2007 284.461 43.902C284.899 43.6033 285.361 43.4493 285.847 43.44L285.861 45.022C285.833 45.022 285.805 45.022 285.777 45.022ZM292.843 47.584V43.552H294.411V51H292.843V49.642C292.591 50.0993 292.241 50.4587 291.793 50.72C291.354 50.9813 290.878 51.112 290.365 51.112C289.525 51.112 288.844 50.8553 288.321 50.342C287.808 49.8287 287.551 49.0867 287.551 48.116V43.552H289.119V47.64C289.119 49.012 289.688 49.698 290.827 49.698C291.368 49.698 291.84 49.5207 292.241 49.166C292.642 48.802 292.843 48.2747 292.843 47.584ZM298.454 46.968V51H296.886V43.552H298.454V44.91C298.678 44.4527 299.014 44.0933 299.462 43.832C299.919 43.5707 300.409 43.44 300.932 43.44C302.108 43.44 302.906 43.9253 303.326 44.896C304.063 43.9253 304.983 43.44 306.084 43.44C306.924 43.44 307.601 43.6967 308.114 44.21C308.637 44.7233 308.898 45.4653 308.898 46.436V51H307.33V46.912C307.33 45.54 306.761 44.854 305.622 44.854C305.09 44.854 304.623 45.0267 304.222 45.372C303.83 45.708 303.625 46.2027 303.606 46.856V51H302.038V46.912C302.038 46.2027 301.912 45.6847 301.66 45.358C301.408 45.022 301.011 44.854 300.47 44.854C299.929 44.854 299.457 45.036 299.056 45.4C298.655 45.7547 298.454 46.2773 298.454 46.968ZM316.887 46.968V51H315.319V43.552H316.887V44.91C317.111 44.4527 317.447 44.0933 317.895 43.832C318.352 43.5707 318.842 43.44 319.365 43.44C320.541 43.44 321.339 43.9253 321.759 44.896C322.496 43.9253 323.416 43.44 324.517 43.44C325.357 43.44 326.034 43.6967 326.547 44.21C327.07 44.7233 327.331 45.4653 327.331 46.436V51H325.763V46.912C325.763 45.54 325.194 44.854 324.055 44.854C323.523 44.854 323.056 45.0267 322.655 45.372C322.263 45.708 322.058 46.2027 322.039 46.856V51H320.471V46.912C320.471 46.2027 320.345 45.6847 320.093 45.358C319.841 45.022 319.444 44.854 318.903 44.854C318.362 44.854 317.89 45.036 317.489 45.4C317.088 45.7547 316.887 46.2773 316.887 46.968ZM336.641 47.962H330.803C330.84 48.5033 331.087 48.942 331.545 49.278C332.002 49.6047 332.525 49.768 333.113 49.768C334.046 49.768 334.755 49.474 335.241 48.886L336.137 49.866C335.334 50.6967 334.289 51.112 333.001 51.112C331.955 51.112 331.064 50.7667 330.327 50.076C329.599 49.376 329.235 48.4427 329.235 47.276C329.235 46.1 329.608 45.1667 330.355 44.476C331.101 43.7853 331.979 43.44 332.987 43.44C334.004 43.44 334.867 43.748 335.577 44.364C336.286 44.9707 336.641 45.8107 336.641 46.884V47.962ZM330.803 46.73H335.073C335.073 46.1047 334.877 45.624 334.485 45.288C334.093 44.952 333.607 44.784 333.029 44.784C332.459 44.784 331.946 44.9613 331.489 45.316C331.031 45.6613 330.803 46.1327 330.803 46.73ZM340.442 44.812V48.592C340.442 48.9467 340.535 49.2313 340.722 49.446C340.909 49.6513 341.17 49.754 341.506 49.754C341.842 49.754 342.164 49.5907 342.472 49.264L343.116 50.37C342.565 50.8647 341.954 51.112 341.282 51.112C340.619 51.112 340.05 50.8833 339.574 50.426C339.107 49.9593 338.874 49.334 338.874 48.55V44.812H337.936V43.552H338.874V41.214H340.442V43.552H342.402V44.812H340.442ZM344.646 50.804C344.45 50.5987 344.352 50.3513 344.352 50.062C344.352 49.7727 344.45 49.53 344.646 49.334C344.851 49.1287 345.098 49.026 345.388 49.026C345.677 49.026 345.924 49.1287 346.13 49.334C346.335 49.53 346.438 49.7727 346.438 50.062C346.438 50.3513 346.335 50.5987 346.13 50.804C345.924 51.0093 345.677 51.112 345.388 51.112C345.098 51.112 344.851 51.0093 344.646 50.804Z" fill="#858585"/>
</svg>
